<mxfile host="app.diagrams.net" modified="2024-01-04T19:12:09.276Z" agent="Mozilla/5.0 (Windows NT 10.0; Win64; x64) AppleWebKit/537.36 (KHTML, like Gecko) Chrome/120.0.0.0 Safari/537.36" etag="ycXv51GV1gwOfuYuKibx" version="22.1.16" type="device">
  <diagram name="Page-1" id="trULozwYgW3L8tCiNCiA">
    <mxGraphModel dx="4140" dy="1346" grid="1" gridSize="10" guides="1" tooltips="1" connect="1" arrows="1" fold="1" page="1" pageScale="1" pageWidth="850" pageHeight="1100" math="0" shadow="0">
      <root>
        <mxCell id="0" />
        <mxCell id="1" parent="0" />
        <mxCell id="kvWCw-kdsKIWQLSWnTGN-45" value="" style="rounded=0;whiteSpace=wrap;html=1;fillColor=none;" vertex="1" parent="1">
          <mxGeometry x="-1110" y="10" width="2500" height="520" as="geometry" />
        </mxCell>
        <mxCell id="kvWCw-kdsKIWQLSWnTGN-1" value="Fields (collection)" style="swimlane;fontStyle=0;childLayout=stackLayout;horizontal=1;startSize=30;horizontalStack=0;resizeParent=1;resizeParentMax=0;resizeLast=0;collapsible=1;marginBottom=0;whiteSpace=wrap;html=1;" vertex="1" parent="1">
          <mxGeometry x="350" y="110" width="140" height="150" as="geometry" />
        </mxCell>
        <mxCell id="kvWCw-kdsKIWQLSWnTGN-2" value="id: String : field_uuid" style="text;strokeColor=none;fillColor=none;align=left;verticalAlign=middle;spacingLeft=4;spacingRight=4;overflow=hidden;points=[[0,0.5],[1,0.5]];portConstraint=eastwest;rotatable=0;whiteSpace=wrap;html=1;" vertex="1" parent="kvWCw-kdsKIWQLSWnTGN-1">
          <mxGeometry y="30" width="140" height="30" as="geometry" />
        </mxCell>
        <mxCell id="kvWCw-kdsKIWQLSWnTGN-37" value="name: string" style="text;strokeColor=none;fillColor=none;align=left;verticalAlign=middle;spacingLeft=4;spacingRight=4;overflow=hidden;points=[[0,0.5],[1,0.5]];portConstraint=eastwest;rotatable=0;whiteSpace=wrap;html=1;" vertex="1" parent="kvWCw-kdsKIWQLSWnTGN-1">
          <mxGeometry y="60" width="140" height="30" as="geometry" />
        </mxCell>
        <mxCell id="kvWCw-kdsKIWQLSWnTGN-3" value="Vines: Subcollection" style="text;strokeColor=none;fillColor=none;align=left;verticalAlign=middle;spacingLeft=4;spacingRight=4;overflow=hidden;points=[[0,0.5],[1,0.5]];portConstraint=eastwest;rotatable=0;whiteSpace=wrap;html=1;" vertex="1" parent="kvWCw-kdsKIWQLSWnTGN-1">
          <mxGeometry y="90" width="140" height="30" as="geometry" />
        </mxCell>
        <mxCell id="kvWCw-kdsKIWQLSWnTGN-4" value="Blocks: Subcollection" style="text;strokeColor=none;fillColor=none;align=left;verticalAlign=middle;spacingLeft=4;spacingRight=4;overflow=hidden;points=[[0,0.5],[1,0.5]];portConstraint=eastwest;rotatable=0;whiteSpace=wrap;html=1;" vertex="1" parent="kvWCw-kdsKIWQLSWnTGN-1">
          <mxGeometry y="120" width="140" height="30" as="geometry" />
        </mxCell>
        <mxCell id="kvWCw-kdsKIWQLSWnTGN-11" style="edgeStyle=orthogonalEdgeStyle;rounded=0;orthogonalLoop=1;jettySize=auto;html=1;entryX=0.5;entryY=0;entryDx=0;entryDy=0;" edge="1" parent="1" source="kvWCw-kdsKIWQLSWnTGN-4" target="kvWCw-kdsKIWQLSWnTGN-7">
          <mxGeometry relative="1" as="geometry" />
        </mxCell>
        <mxCell id="kvWCw-kdsKIWQLSWnTGN-19" style="edgeStyle=orthogonalEdgeStyle;rounded=0;orthogonalLoop=1;jettySize=auto;html=1;entryX=0.5;entryY=0;entryDx=0;entryDy=0;" edge="1" parent="1" source="kvWCw-kdsKIWQLSWnTGN-3" target="kvWCw-kdsKIWQLSWnTGN-13">
          <mxGeometry relative="1" as="geometry" />
        </mxCell>
        <mxCell id="kvWCw-kdsKIWQLSWnTGN-20" value="Varieties (Collection)" style="swimlane;fontStyle=0;childLayout=stackLayout;horizontal=1;startSize=30;horizontalStack=0;resizeParent=1;resizeParentMax=0;resizeLast=0;collapsible=1;marginBottom=0;whiteSpace=wrap;html=1;" vertex="1" parent="1">
          <mxGeometry x="850" y="100" width="260" height="210" as="geometry" />
        </mxCell>
        <mxCell id="kvWCw-kdsKIWQLSWnTGN-21" value="id: string : variety_uuid" style="text;strokeColor=none;fillColor=none;align=left;verticalAlign=middle;spacingLeft=4;spacingRight=4;overflow=hidden;points=[[0,0.5],[1,0.5]];portConstraint=eastwest;rotatable=0;whiteSpace=wrap;html=1;" vertex="1" parent="kvWCw-kdsKIWQLSWnTGN-20">
          <mxGeometry y="30" width="260" height="30" as="geometry" />
        </mxCell>
        <mxCell id="kvWCw-kdsKIWQLSWnTGN-23" value="description: string" style="text;strokeColor=none;fillColor=none;align=left;verticalAlign=middle;spacingLeft=4;spacingRight=4;overflow=hidden;points=[[0,0.5],[1,0.5]];portConstraint=eastwest;rotatable=0;whiteSpace=wrap;html=1;" vertex="1" parent="kvWCw-kdsKIWQLSWnTGN-20">
          <mxGeometry y="60" width="260" height="30" as="geometry" />
        </mxCell>
        <mxCell id="kvWCw-kdsKIWQLSWnTGN-24" value="image: string : url" style="text;strokeColor=none;fillColor=none;align=left;verticalAlign=middle;spacingLeft=4;spacingRight=4;overflow=hidden;points=[[0,0.5],[1,0.5]];portConstraint=eastwest;rotatable=0;whiteSpace=wrap;html=1;" vertex="1" parent="kvWCw-kdsKIWQLSWnTGN-20">
          <mxGeometry y="90" width="260" height="30" as="geometry" />
        </mxCell>
        <mxCell id="kvWCw-kdsKIWQLSWnTGN-22" value="name: string" style="text;strokeColor=none;fillColor=none;align=left;verticalAlign=middle;spacingLeft=4;spacingRight=4;overflow=hidden;points=[[0,0.5],[1,0.5]];portConstraint=eastwest;rotatable=0;whiteSpace=wrap;html=1;" vertex="1" parent="kvWCw-kdsKIWQLSWnTGN-20">
          <mxGeometry y="120" width="260" height="30" as="geometry" />
        </mxCell>
        <mxCell id="kvWCw-kdsKIWQLSWnTGN-25" value="roots: map : {&lt;br&gt;&lt;span style=&quot;white-space: pre;&quot;&gt;&#x9;&lt;/span&gt;[key: string: rootName]: number : %,&lt;br&gt;}" style="text;strokeColor=none;fillColor=none;align=left;verticalAlign=middle;spacingLeft=4;spacingRight=4;overflow=hidden;points=[[0,0.5],[1,0.5]];portConstraint=eastwest;rotatable=0;whiteSpace=wrap;html=1;" vertex="1" parent="kvWCw-kdsKIWQLSWnTGN-20">
          <mxGeometry y="150" width="260" height="60" as="geometry" />
        </mxCell>
        <mxCell id="kvWCw-kdsKIWQLSWnTGN-26" style="edgeStyle=orthogonalEdgeStyle;rounded=0;orthogonalLoop=1;jettySize=auto;html=1;entryX=0;entryY=0.5;entryDx=0;entryDy=0;curved=1;" edge="1" parent="1" source="kvWCw-kdsKIWQLSWnTGN-18" target="kvWCw-kdsKIWQLSWnTGN-21">
          <mxGeometry relative="1" as="geometry" />
        </mxCell>
        <mxCell id="kvWCw-kdsKIWQLSWnTGN-29" value="Users (Collection)" style="swimlane;fontStyle=0;childLayout=stackLayout;horizontal=1;startSize=30;horizontalStack=0;resizeParent=1;resizeParentMax=0;resizeLast=0;collapsible=1;marginBottom=0;whiteSpace=wrap;html=1;" vertex="1" parent="1">
          <mxGeometry x="-520" y="70" width="215" height="180" as="geometry" />
        </mxCell>
        <mxCell id="kvWCw-kdsKIWQLSWnTGN-30" value="id: string : user_uuid" style="text;strokeColor=none;fillColor=none;align=left;verticalAlign=middle;spacingLeft=4;spacingRight=4;overflow=hidden;points=[[0,0.5],[1,0.5]];portConstraint=eastwest;rotatable=0;whiteSpace=wrap;html=1;" vertex="1" parent="kvWCw-kdsKIWQLSWnTGN-29">
          <mxGeometry y="30" width="215" height="30" as="geometry" />
        </mxCell>
        <mxCell id="kvWCw-kdsKIWQLSWnTGN-68" value="Username: string" style="text;strokeColor=none;fillColor=none;align=left;verticalAlign=middle;spacingLeft=4;spacingRight=4;overflow=hidden;points=[[0,0.5],[1,0.5]];portConstraint=eastwest;rotatable=0;whiteSpace=wrap;html=1;" vertex="1" parent="kvWCw-kdsKIWQLSWnTGN-29">
          <mxGeometry y="60" width="215" height="30" as="geometry" />
        </mxCell>
        <mxCell id="kvWCw-kdsKIWQLSWnTGN-31" value="Email: string" style="text;strokeColor=none;fillColor=none;align=left;verticalAlign=middle;spacingLeft=4;spacingRight=4;overflow=hidden;points=[[0,0.5],[1,0.5]];portConstraint=eastwest;rotatable=0;whiteSpace=wrap;html=1;" vertex="1" parent="kvWCw-kdsKIWQLSWnTGN-29">
          <mxGeometry y="90" width="215" height="30" as="geometry" />
        </mxCell>
        <mxCell id="kvWCw-kdsKIWQLSWnTGN-33" value="Roles: array : [string]" style="text;strokeColor=none;fillColor=none;align=left;verticalAlign=middle;spacingLeft=4;spacingRight=4;overflow=hidden;points=[[0,0.5],[1,0.5]];portConstraint=eastwest;rotatable=0;whiteSpace=wrap;html=1;" vertex="1" parent="kvWCw-kdsKIWQLSWnTGN-29">
          <mxGeometry y="120" width="215" height="30" as="geometry" />
        </mxCell>
        <mxCell id="kvWCw-kdsKIWQLSWnTGN-55" value="profile_picture: string : url" style="text;strokeColor=none;fillColor=none;align=left;verticalAlign=middle;spacingLeft=4;spacingRight=4;overflow=hidden;points=[[0,0.5],[1,0.5]];portConstraint=eastwest;rotatable=0;whiteSpace=wrap;html=1;" vertex="1" parent="kvWCw-kdsKIWQLSWnTGN-29">
          <mxGeometry y="150" width="215" height="30" as="geometry" />
        </mxCell>
        <mxCell id="kvWCw-kdsKIWQLSWnTGN-40" value="block_vine (Collection)" style="swimlane;fontStyle=0;childLayout=stackLayout;horizontal=1;startSize=30;horizontalStack=0;resizeParent=1;resizeParentMax=0;resizeLast=0;collapsible=1;marginBottom=0;whiteSpace=wrap;html=1;" vertex="1" parent="1">
          <mxGeometry x="-80" y="75" width="220" height="150" as="geometry" />
        </mxCell>
        <mxCell id="kvWCw-kdsKIWQLSWnTGN-41" value="id: string : block_vine_uuid" style="text;strokeColor=none;fillColor=none;align=left;verticalAlign=middle;spacingLeft=4;spacingRight=4;overflow=hidden;points=[[0,0.5],[1,0.5]];portConstraint=eastwest;rotatable=0;whiteSpace=wrap;html=1;" vertex="1" parent="kvWCw-kdsKIWQLSWnTGN-40">
          <mxGeometry y="30" width="220" height="30" as="geometry" />
        </mxCell>
        <mxCell id="kvWCw-kdsKIWQLSWnTGN-42" value="vines: map : {&lt;br&gt;&lt;span style=&quot;white-space: pre;&quot;&gt;&#x9;&lt;/span&gt;vine_id: map : {&lt;br&gt;&lt;span style=&quot;white-space: pre;&quot;&gt;&#x9;&lt;span style=&quot;white-space: pre;&quot;&gt;&#x9;&lt;/span&gt;row&lt;/span&gt;: number,&lt;br&gt;&lt;span style=&quot;white-space: pre;&quot;&gt;&#x9;&lt;/span&gt;&lt;span style=&quot;white-space: pre;&quot;&gt;&#x9;&lt;/span&gt;vine: number.&lt;br&gt;&lt;span style=&quot;white-space: pre;&quot;&gt;&#x9;&lt;/span&gt;}&lt;br&gt;}" style="text;strokeColor=none;fillColor=none;align=left;verticalAlign=middle;spacingLeft=4;spacingRight=4;overflow=hidden;points=[[0,0.5],[1,0.5]];portConstraint=eastwest;rotatable=0;whiteSpace=wrap;html=1;" vertex="1" parent="kvWCw-kdsKIWQLSWnTGN-40">
          <mxGeometry y="60" width="220" height="90" as="geometry" />
        </mxCell>
        <mxCell id="kvWCw-kdsKIWQLSWnTGN-44" style="edgeStyle=orthogonalEdgeStyle;rounded=0;orthogonalLoop=1;jettySize=auto;html=1;entryX=0;entryY=0.5;entryDx=0;entryDy=0;curved=1;" edge="1" parent="1" source="kvWCw-kdsKIWQLSWnTGN-39" target="kvWCw-kdsKIWQLSWnTGN-41">
          <mxGeometry relative="1" as="geometry">
            <Array as="points">
              <mxPoint x="-150" y="865" />
              <mxPoint x="-150" y="120" />
            </Array>
          </mxGeometry>
        </mxCell>
        <mxCell id="kvWCw-kdsKIWQLSWnTGN-47" value="Top Level" style="text;html=1;align=center;verticalAlign=middle;whiteSpace=wrap;rounded=0;fillColor=default;strokeColor=default;" vertex="1" parent="1">
          <mxGeometry x="-1110" y="10" width="60" height="30" as="geometry" />
        </mxCell>
        <mxCell id="kvWCw-kdsKIWQLSWnTGN-50" value="Tasks (Collection)" style="swimlane;fontStyle=0;childLayout=stackLayout;horizontal=1;startSize=30;horizontalStack=0;resizeParent=1;resizeParentMax=0;resizeLast=0;collapsible=1;marginBottom=0;whiteSpace=wrap;html=1;" vertex="1" parent="1">
          <mxGeometry x="-1030" y="60" width="320" height="430" as="geometry" />
        </mxCell>
        <mxCell id="kvWCw-kdsKIWQLSWnTGN-51" value="id: string : Task_uuid" style="text;strokeColor=none;fillColor=none;align=left;verticalAlign=middle;spacingLeft=4;spacingRight=4;overflow=hidden;points=[[0,0.5],[1,0.5]];portConstraint=eastwest;rotatable=0;whiteSpace=wrap;html=1;" vertex="1" parent="kvWCw-kdsKIWQLSWnTGN-50">
          <mxGeometry y="30" width="320" height="30" as="geometry" />
        </mxCell>
        <mxCell id="kvWCw-kdsKIWQLSWnTGN-52" value="title: string" style="text;strokeColor=none;fillColor=none;align=left;verticalAlign=middle;spacingLeft=4;spacingRight=4;overflow=hidden;points=[[0,0.5],[1,0.5]];portConstraint=eastwest;rotatable=0;whiteSpace=wrap;html=1;" vertex="1" parent="kvWCw-kdsKIWQLSWnTGN-50">
          <mxGeometry y="60" width="320" height="30" as="geometry" />
        </mxCell>
        <mxCell id="kvWCw-kdsKIWQLSWnTGN-53" value="description: string" style="text;strokeColor=none;fillColor=none;align=left;verticalAlign=middle;spacingLeft=4;spacingRight=4;overflow=hidden;points=[[0,0.5],[1,0.5]];portConstraint=eastwest;rotatable=0;whiteSpace=wrap;html=1;" vertex="1" parent="kvWCw-kdsKIWQLSWnTGN-50">
          <mxGeometry y="90" width="320" height="30" as="geometry" />
        </mxCell>
        <mxCell id="kvWCw-kdsKIWQLSWnTGN-57" value="type: string" style="text;strokeColor=none;fillColor=none;align=left;verticalAlign=middle;spacingLeft=4;spacingRight=4;overflow=hidden;points=[[0,0.5],[1,0.5]];portConstraint=eastwest;rotatable=0;whiteSpace=wrap;html=1;" vertex="1" parent="kvWCw-kdsKIWQLSWnTGN-50">
          <mxGeometry y="120" width="320" height="30" as="geometry" />
        </mxCell>
        <mxCell id="kvWCw-kdsKIWQLSWnTGN-58" value="tags: array : [string] * limit to 10" style="text;strokeColor=none;fillColor=none;align=left;verticalAlign=middle;spacingLeft=4;spacingRight=4;overflow=hidden;points=[[0,0.5],[1,0.5]];portConstraint=eastwest;rotatable=0;whiteSpace=wrap;html=1;" vertex="1" parent="kvWCw-kdsKIWQLSWnTGN-50">
          <mxGeometry y="150" width="320" height="30" as="geometry" />
        </mxCell>
        <mxCell id="kvWCw-kdsKIWQLSWnTGN-54" value="assignee: map : {&lt;br&gt;&lt;span style=&quot;white-space: pre;&quot;&gt;&#x9;&lt;/span&gt;user_id: {&lt;br&gt;&lt;span style=&quot;white-space: pre;&quot;&gt;&#x9;&lt;span style=&quot;white-space: pre;&quot;&gt;&#x9;&lt;/span&gt;usern&lt;/span&gt;ame: string,&lt;br&gt;&lt;span style=&quot;white-space: pre;&quot;&gt;&#x9;&lt;/span&gt;&lt;span style=&quot;white-space: pre;&quot;&gt;&#x9;&lt;/span&gt;profile_picture: string : url&amp;nbsp;&lt;br&gt;&lt;span style=&quot;white-space: pre;&quot;&gt;&#x9;&lt;/span&gt;}&lt;br&gt;}" style="text;strokeColor=none;fillColor=none;align=left;verticalAlign=middle;spacingLeft=4;spacingRight=4;overflow=hidden;points=[[0,0.5],[1,0.5]];portConstraint=eastwest;rotatable=0;whiteSpace=wrap;html=1;" vertex="1" parent="kvWCw-kdsKIWQLSWnTGN-50">
          <mxGeometry y="180" width="320" height="90" as="geometry" />
        </mxCell>
        <mxCell id="kvWCw-kdsKIWQLSWnTGN-56" value="requested_by: map : {&lt;br&gt;&lt;span style=&quot;white-space: pre;&quot;&gt;&#x9;&lt;/span&gt;id: user_id,&lt;br&gt;&lt;span style=&quot;white-space: pre;&quot;&gt;&#x9;usern&lt;/span&gt;ame: string,&lt;br&gt;&lt;span style=&quot;white-space: pre;&quot;&gt;&#x9;&lt;/span&gt;profile_picture: string : url&amp;nbsp;&lt;br&gt;}" style="text;strokeColor=none;fillColor=none;align=left;verticalAlign=middle;spacingLeft=4;spacingRight=4;overflow=hidden;points=[[0,0.5],[1,0.5]];portConstraint=eastwest;rotatable=0;whiteSpace=wrap;html=1;" vertex="1" parent="kvWCw-kdsKIWQLSWnTGN-50">
          <mxGeometry y="270" width="320" height="90" as="geometry" />
        </mxCell>
        <mxCell id="kvWCw-kdsKIWQLSWnTGN-70" value="field: map : {&lt;br&gt;&lt;span style=&quot;white-space: pre;&quot;&gt;&#x9;&lt;/span&gt;id: string : field_id,&lt;br&gt;&lt;span style=&quot;white-space: pre;&quot;&gt;&#x9;&lt;/span&gt;name: string&lt;br&gt;}" style="text;strokeColor=none;fillColor=none;align=left;verticalAlign=middle;spacingLeft=4;spacingRight=4;overflow=hidden;points=[[0,0.5],[1,0.5]];portConstraint=eastwest;rotatable=0;whiteSpace=wrap;html=1;" vertex="1" parent="kvWCw-kdsKIWQLSWnTGN-50">
          <mxGeometry y="360" width="320" height="70" as="geometry" />
        </mxCell>
        <mxCell id="kvWCw-kdsKIWQLSWnTGN-73" style="edgeStyle=orthogonalEdgeStyle;rounded=0;orthogonalLoop=1;jettySize=auto;html=1;curved=1;" edge="1" parent="1" source="kvWCw-kdsKIWQLSWnTGN-54" target="kvWCw-kdsKIWQLSWnTGN-30">
          <mxGeometry relative="1" as="geometry" />
        </mxCell>
        <mxCell id="kvWCw-kdsKIWQLSWnTGN-75" style="edgeStyle=orthogonalEdgeStyle;rounded=0;orthogonalLoop=1;jettySize=auto;html=1;exitX=1;exitY=0.5;exitDx=0;exitDy=0;entryX=0;entryY=0.5;entryDx=0;entryDy=0;curved=1;" edge="1" parent="1" source="kvWCw-kdsKIWQLSWnTGN-56" target="kvWCw-kdsKIWQLSWnTGN-30">
          <mxGeometry relative="1" as="geometry" />
        </mxCell>
        <mxCell id="kvWCw-kdsKIWQLSWnTGN-76" value="" style="group" vertex="1" connectable="0" parent="1">
          <mxGeometry x="-520" y="660" width="1470" height="520" as="geometry" />
        </mxCell>
        <mxCell id="kvWCw-kdsKIWQLSWnTGN-48" value="" style="rounded=0;whiteSpace=wrap;html=1;fillColor=none;container=0;" vertex="1" parent="kvWCw-kdsKIWQLSWnTGN-76">
          <mxGeometry width="1470" height="520" as="geometry" />
        </mxCell>
        <mxCell id="kvWCw-kdsKIWQLSWnTGN-7" value="Blocks (Subcollection)" style="swimlane;fontStyle=0;childLayout=stackLayout;horizontal=1;startSize=30;horizontalStack=0;resizeParent=1;resizeParentMax=0;resizeLast=0;collapsible=1;marginBottom=0;whiteSpace=wrap;html=1;container=0;" vertex="1" parent="kvWCw-kdsKIWQLSWnTGN-76">
          <mxGeometry x="680" y="100" width="270" height="390" as="geometry" />
        </mxCell>
        <mxCell id="kvWCw-kdsKIWQLSWnTGN-13" value="Vines (subcollection)" style="swimlane;fontStyle=0;childLayout=stackLayout;horizontal=1;startSize=30;horizontalStack=0;resizeParent=1;resizeParentMax=0;resizeLast=0;collapsible=1;marginBottom=0;whiteSpace=wrap;html=1;container=0;" vertex="1" parent="kvWCw-kdsKIWQLSWnTGN-76">
          <mxGeometry x="1070" y="80" width="190" height="330" as="geometry" />
        </mxCell>
        <mxCell id="kvWCw-kdsKIWQLSWnTGN-49" value="Level 2" style="text;html=1;align=center;verticalAlign=middle;whiteSpace=wrap;rounded=0;fillColor=default;strokeColor=default;container=0;" vertex="1" parent="kvWCw-kdsKIWQLSWnTGN-76">
          <mxGeometry width="60" height="30" as="geometry" />
        </mxCell>
        <mxCell id="kvWCw-kdsKIWQLSWnTGN-8" value="id: String : field_id-Variety_id" style="text;strokeColor=none;fillColor=none;align=left;verticalAlign=middle;spacingLeft=4;spacingRight=4;overflow=hidden;points=[[0,0.5],[1,0.5]];portConstraint=eastwest;rotatable=0;whiteSpace=wrap;html=1;container=0;" vertex="1" parent="kvWCw-kdsKIWQLSWnTGN-76">
          <mxGeometry x="680" y="130" width="270" height="30" as="geometry" />
        </mxCell>
        <mxCell id="kvWCw-kdsKIWQLSWnTGN-36" value="name: string : {{fieldName}}_{{VarietyName}}" style="text;strokeColor=none;fillColor=none;align=left;verticalAlign=middle;spacingLeft=4;spacingRight=4;overflow=hidden;points=[[0,0.5],[1,0.5]];portConstraint=eastwest;rotatable=0;whiteSpace=wrap;html=1;container=0;" vertex="1" parent="kvWCw-kdsKIWQLSWnTGN-76">
          <mxGeometry x="680" y="160" width="270" height="30" as="geometry" />
        </mxCell>
        <mxCell id="kvWCw-kdsKIWQLSWnTGN-39" value="block_vines: string : block_vine_id" style="text;strokeColor=none;fillColor=none;align=left;verticalAlign=middle;spacingLeft=4;spacingRight=4;overflow=hidden;points=[[0,0.5],[1,0.5]];portConstraint=eastwest;rotatable=0;whiteSpace=wrap;html=1;container=0;" vertex="1" parent="kvWCw-kdsKIWQLSWnTGN-76">
          <mxGeometry x="680" y="190" width="270" height="30" as="geometry" />
        </mxCell>
        <mxCell id="kvWCw-kdsKIWQLSWnTGN-12" value="average: map : { &lt;br&gt;&lt;span style=&quot;white-space: pre;&quot;&gt;&#x9;&lt;/span&gt;ta: number,&lt;br&gt;&lt;span style=&quot;white-space: pre;&quot;&gt;&#x9;&lt;/span&gt;brix: number,&lt;br&gt;&lt;span style=&quot;white-space: pre;&quot;&gt;&#x9;&lt;/span&gt;ph: number&lt;br&gt;}" style="text;strokeColor=none;fillColor=none;align=left;verticalAlign=middle;spacingLeft=4;spacingRight=4;overflow=hidden;points=[[0,0.5],[1,0.5]];portConstraint=eastwest;rotatable=0;whiteSpace=wrap;html=1;container=0;" vertex="1" parent="kvWCw-kdsKIWQLSWnTGN-76">
          <mxGeometry x="680" y="220" width="270" height="80" as="geometry" />
        </mxCell>
        <mxCell id="kvWCw-kdsKIWQLSWnTGN-9" value="Samples: array : [&lt;br&gt;&lt;span style=&quot;white-space: pre;&quot;&gt;&#x9;&lt;/span&gt;map : {&lt;br&gt;&lt;span style=&quot;white-space: pre;&quot;&gt;&#x9;&lt;span style=&quot;white-space: pre;&quot;&gt;&#x9;&lt;/span&gt;i&lt;/span&gt;d: vine_id,&lt;br&gt;&lt;span style=&quot;white-space: pre;&quot;&gt;&#x9;&lt;/span&gt;&lt;span style=&quot;white-space: pre;&quot;&gt;&#x9;&lt;/span&gt;position: {&lt;br&gt;&lt;span style=&quot;white-space: pre;&quot;&gt;&#x9;&lt;/span&gt;&lt;span style=&quot;white-space: pre;&quot;&gt;&#x9;&lt;span style=&quot;white-space: pre;&quot;&gt;&#x9;&lt;/span&gt;ro&lt;/span&gt;w: number,&lt;br&gt;&lt;span style=&quot;white-space: pre;&quot;&gt;&#x9;&lt;/span&gt;&lt;span style=&quot;white-space: pre;&quot;&gt;&#x9;&lt;/span&gt;&lt;span style=&quot;white-space: pre;&quot;&gt;&#x9;&lt;/span&gt;vine: number,&lt;br&gt;&lt;span style=&quot;white-space: pre;&quot;&gt;&#x9;&lt;/span&gt;&lt;span style=&quot;white-space: pre;&quot;&gt;&#x9;&lt;/span&gt;},&lt;br&gt;&lt;span style=&quot;white-space: pre;&quot;&gt;&#x9;&lt;/span&gt;&lt;span style=&quot;white-space: pre;&quot;&gt;&#x9;&lt;/span&gt;ta: number,&lt;br&gt;&lt;span style=&quot;white-space: pre;&quot;&gt;&#x9;&lt;/span&gt;&lt;span style=&quot;white-space: pre;&quot;&gt;&#x9;&lt;/span&gt;brix: number,&lt;br&gt;&lt;span style=&quot;white-space: pre;&quot;&gt;&#x9;&lt;/span&gt;&lt;span style=&quot;white-space: pre;&quot;&gt;&#x9;&lt;/span&gt;ph: number,&lt;br&gt;&lt;span style=&quot;white-space: pre;&quot;&gt;&#x9;&lt;/span&gt;}&lt;br&gt;]" style="text;strokeColor=none;fillColor=none;align=left;verticalAlign=middle;spacingLeft=4;spacingRight=4;overflow=hidden;points=[[0,0.5],[1,0.5]];portConstraint=eastwest;rotatable=0;whiteSpace=wrap;html=1;container=0;" vertex="1" parent="kvWCw-kdsKIWQLSWnTGN-76">
          <mxGeometry x="680" y="300" width="270" height="190" as="geometry" />
        </mxCell>
        <mxCell id="kvWCw-kdsKIWQLSWnTGN-14" value="id: String : vine_uuid" style="text;strokeColor=none;fillColor=none;align=left;verticalAlign=middle;spacingLeft=4;spacingRight=4;overflow=hidden;points=[[0,0.5],[1,0.5]];portConstraint=eastwest;rotatable=0;whiteSpace=wrap;html=1;container=0;" vertex="1" parent="kvWCw-kdsKIWQLSWnTGN-76">
          <mxGeometry x="1070" y="110" width="190" height="30" as="geometry" />
        </mxCell>
        <mxCell id="kvWCw-kdsKIWQLSWnTGN-34" value="field: string : field_id" style="text;strokeColor=none;fillColor=none;align=left;verticalAlign=middle;spacingLeft=4;spacingRight=4;overflow=hidden;points=[[0,0.5],[1,0.5]];portConstraint=eastwest;rotatable=0;whiteSpace=wrap;html=1;container=0;" vertex="1" parent="kvWCw-kdsKIWQLSWnTGN-76">
          <mxGeometry x="1070" y="140" width="190" height="30" as="geometry" />
        </mxCell>
        <mxCell id="kvWCw-kdsKIWQLSWnTGN-38" value="block: string : block_id" style="text;strokeColor=none;fillColor=none;align=left;verticalAlign=middle;spacingLeft=4;spacingRight=4;overflow=hidden;points=[[0,0.5],[1,0.5]];portConstraint=eastwest;rotatable=0;whiteSpace=wrap;html=1;container=0;" vertex="1" parent="kvWCw-kdsKIWQLSWnTGN-76">
          <mxGeometry x="1070" y="170" width="190" height="30" as="geometry" />
        </mxCell>
        <mxCell id="kvWCw-kdsKIWQLSWnTGN-28" value="Clusters: number" style="text;strokeColor=none;fillColor=none;align=left;verticalAlign=middle;spacingLeft=4;spacingRight=4;overflow=hidden;points=[[0,0.5],[1,0.5]];portConstraint=eastwest;rotatable=0;whiteSpace=wrap;html=1;container=0;" vertex="1" parent="kvWCw-kdsKIWQLSWnTGN-76">
          <mxGeometry x="1070" y="200" width="190" height="40" as="geometry" />
        </mxCell>
        <mxCell id="kvWCw-kdsKIWQLSWnTGN-17" value="position: map : {&lt;br&gt;&lt;span style=&quot;white-space: pre;&quot;&gt;&#x9;&lt;/span&gt;row: number,&lt;br&gt;&lt;span style=&quot;white-space: pre;&quot;&gt;&#x9;&lt;/span&gt;vine: number,&lt;br&gt;}" style="text;strokeColor=none;fillColor=none;align=left;verticalAlign=middle;spacingLeft=4;spacingRight=4;overflow=hidden;points=[[0,0.5],[1,0.5]];portConstraint=eastwest;rotatable=0;whiteSpace=wrap;html=1;container=0;" vertex="1" parent="kvWCw-kdsKIWQLSWnTGN-76">
          <mxGeometry x="1070" y="240" width="190" height="60" as="geometry" />
        </mxCell>
        <mxCell id="kvWCw-kdsKIWQLSWnTGN-18" value="variety: map : {&amp;nbsp;&lt;br&gt;&lt;span style=&quot;white-space: pre;&quot;&gt;&#x9;&lt;/span&gt;id: variety_id,&lt;br&gt;&lt;span style=&quot;white-space: pre;&quot;&gt;&#x9;&lt;/span&gt;name: string,&lt;br&gt;}&amp;nbsp;" style="text;strokeColor=none;fillColor=none;align=left;verticalAlign=middle;spacingLeft=4;spacingRight=4;overflow=hidden;points=[[0,0.5],[1,0.5]];portConstraint=eastwest;rotatable=0;whiteSpace=wrap;html=1;container=0;" vertex="1" parent="kvWCw-kdsKIWQLSWnTGN-76">
          <mxGeometry x="1070" y="300" width="190" height="70" as="geometry" />
        </mxCell>
        <mxCell id="kvWCw-kdsKIWQLSWnTGN-27" value="Vigor: string : high | medium | low | dead" style="text;strokeColor=none;fillColor=none;align=left;verticalAlign=middle;spacingLeft=4;spacingRight=4;overflow=hidden;points=[[0,0.5],[1,0.5]];portConstraint=eastwest;rotatable=0;whiteSpace=wrap;html=1;container=0;" vertex="1" parent="kvWCw-kdsKIWQLSWnTGN-76">
          <mxGeometry x="1070" y="370" width="190" height="40" as="geometry" />
        </mxCell>
        <mxCell id="kvWCw-kdsKIWQLSWnTGN-77" style="edgeStyle=orthogonalEdgeStyle;rounded=0;orthogonalLoop=1;jettySize=auto;html=1;entryX=0;entryY=0.5;entryDx=0;entryDy=0;curved=1;" edge="1" parent="1" source="kvWCw-kdsKIWQLSWnTGN-70" target="kvWCw-kdsKIWQLSWnTGN-2">
          <mxGeometry relative="1" as="geometry">
            <Array as="points">
              <mxPoint x="140" y="455" />
              <mxPoint x="140" y="155" />
            </Array>
          </mxGeometry>
        </mxCell>
      </root>
    </mxGraphModel>
  </diagram>
</mxfile>
